<?xml version="1.0" encoding="UTF-8" standalone="no"?>
<!-- Created with Inkscape (http://www.inkscape.org/) -->

<svg
   version="1.1"
   id="svg1"
   width="600"
   height="601.33331"
   viewBox="0 0 600 601.33331"
   sodipodi:docname="LogoMark_Ink_Square.eps"
   xmlns:inkscape="http://www.inkscape.org/namespaces/inkscape"
   xmlns:sodipodi="http://sodipodi.sourceforge.net/DTD/sodipodi-0.dtd"
   xmlns="http://www.w3.org/2000/svg"
   xmlns:svg="http://www.w3.org/2000/svg">
  <defs
     id="defs1" />
  <sodipodi:namedview
     id="namedview1"
     pagecolor="#ffffff"
     bordercolor="#666666"
     borderopacity="1.0"
     inkscape:showpageshadow="2"
     inkscape:pageopacity="0.0"
     inkscape:pagecheckerboard="0"
     inkscape:deskcolor="#d1d1d1">
    <inkscape:page
       x="0"
       y="0"
       inkscape:label="1"
       id="page1"
       width="600"
       height="601.33331"
       margin="0"
       bleed="0" />
  </sodipodi:namedview>
  <g
     id="g1"
     inkscape:groupmode="layer"
     inkscape:label="1">
    <g
       id="group-R5">
      <path
         id="path2"
         d="m 2070.47,2919.8 c -9.25,48.31 -40.36,95.82 -90.14,121.14 -69.34,35.25 -289.6,23.2 -289.6,23.2 v -640.47 h 94.37 c 69.1,0 123.56,9.26 163.39,27.62 39.86,18.41 69.88,43.32 89.76,74.72 19.99,31.46 32.58,58.16 38,98.15 5.42,39.86 8.04,80.57 8.04,121.91 0,67.55 -4.63,125.39 -13.82,173.73"
         style="fill:#171412;fill-opacity:1;fill-rule:nonzero;stroke:none"
         transform="matrix(0.13333333,0,0,-0.13333333,0,601.33333)" />
      <path
         id="path3"
         d="M 1357.27,1613.7 V 3064.14 H 1085.68 V 1613.7 h 271.59"
         style="fill:#171412;fill-opacity:1;fill-rule:nonzero;stroke:none"
         transform="matrix(0.13333333,0,0,-0.13333333,0,601.33333)" />
      <path
         id="path4"
         d="m 3959.64,1574.61 v -54.91 h -1258.7 c 0,0 -10.91,-3.94 -23.91,-7.61 -13,-3.67 -38.23,-11.19 -65.84,-16.61 -27.6,-5.26 -62.11,-7.97 -103.55,-7.97 -84.33,0 -150.35,13.39 -197.92,40.28 -47.45,26.69 -82.75,60.08 -105.79,99.92 -23.09,40.08 -37.16,83.35 -42.57,130.15 -5.35,46.71 -8.91,90.89 -10.39,132.32 -3.06,62.91 -7.25,123.82 -12.59,182.89 -5.42,59.07 -18.01,95.78 -38,141.88 -19.87,45.98 -49.82,82.91 -89.68,110.45 -39.93,27.69 -95.92,41.36 -168.09,41.36 H 1690.73 V 1613.7 h 211.74 v -39.09 -22.68 -32.23 H 1297.34 1145.48 540.355 v 32.23 22.68 39.09 H 751.992 V 3064.14 H 540.355 v 38.99 0.11 22.5 12.35 19.95 h 605.125 151.86 195.7 c 64.34,0 190.94,0 190.94,0 0,0 123.2,0 187.62,0 59.85,0 123.11,-2.59 189.86,-14.76 66.82,-12.39 127.67,-33.46 182.98,-63.33 55.14,-29.98 104.09,-66.99 140.01,-117.61 36.1,-50.51 54.16,-114.28 54.16,-190.94 0,-61.25 -13.87,-113.92 -41.42,-157.63 -27.67,-43.62 -63.33,-79.34 -106.96,-106.95 -43.69,-27.62 -92.43,-48.74 -146.08,-63.26 -53.81,-14.68 -106.68,-24.21 -158.78,-28.82 v -11.47 c 75.15,-13.87 142.32,-27.61 201.32,-41.41 59,-13.82 110.02,-34.59 153.01,-62.06 42.92,-27.69 77.06,-66.12 102.39,-115.2 25.29,-48.97 41.06,-115.02 47.14,-197.79 7.75,-96.63 13.79,-174.21 18.41,-232.36 2.32,-29.17 7.45,-62.77 12.16,-89.82 5.14,-29.47 30.53,-50.93 60.45,-50.93 h 59.38 c 33.86,0 61.31,27.45 61.31,61.31 v 1389.13 h -212.39 v 38.99 0.11 34.85 l 0.68,19.95 h 1375.9 V 2764.5 h -29.88 c -7.7,26.07 -20.72,59.43 -39,100.07 -18.52,40.71 -44.2,80.14 -77.16,118.56 -44.39,51.44 -108.97,81.01 -176.91,81.01 h -507.76 v -640.47 h 129.09 c 56.64,0 104.55,8.03 143.83,24.18 39,16.03 71.66,30.15 97.57,60.1 26.04,29.89 47.66,65.92 64.47,108.11 16.86,42.27 30.81,89.45 41.56,141.55 h 29.83 v -715.57 h -29.83 c -10.75,44.47 -23.55,87.32 -38,128.8 -14.52,41.42 -34.24,77.87 -58.72,109.24 -24.56,31.54 -54.93,40.63 -90.88,59.14 -36.15,18.36 -80.97,27.54 -134.5,27.54 H 3034.42 V 1613.7 h 538.43 c 67.61,0 132.51,26.58 180.7,74.01 43.83,42.91 80.12,93.16 109.37,150.65 29.17,57.52 51.32,119.35 66.75,185.24 h 29.97 z M 0,4505.07 V 4.92969 H 4500 V 4505.07 H 0"
         style="fill:#171412;fill-opacity:1;fill-rule:nonzero;stroke:none"
         transform="matrix(0.13333333,0,0,-0.13333333,0,601.33333)" />
    </g>
  </g>
</svg>
