<?xml version="1.0" encoding="UTF-8" standalone="no"?>
<!-- Created with Inkscape (http://www.inkscape.org/) -->

<svg
   version="1.1"
   id="svg1"
   width="893.33331"
   height="71.600494"
   viewBox="0 0 893.33331 71.600494"
   sodipodi:docname="WordMark-Horizontal_Ink.eps"
   xmlns:inkscape="http://www.inkscape.org/namespaces/inkscape"
   xmlns:sodipodi="http://sodipodi.sourceforge.net/DTD/sodipodi-0.dtd"
   xmlns="http://www.w3.org/2000/svg"
   xmlns:svg="http://www.w3.org/2000/svg">
  <defs
     id="defs1" />
  <sodipodi:namedview
     id="namedview1"
     pagecolor="#ffffff"
     bordercolor="#666666"
     borderopacity="1.0"
     inkscape:showpageshadow="2"
     inkscape:pageopacity="0.0"
     inkscape:pagecheckerboard="0"
     inkscape:deskcolor="#d1d1d1">
    <inkscape:page
       x="0"
       y="0"
       width="893.33331"
       height="71.600494"
       id="page2"
       margin="0"
       bleed="0" />
  </sodipodi:namedview>
  <g
     id="g1"
     inkscape:groupmode="layer"
     inkscape:label="1"
     transform="translate(0,-6.3701358)">
    <g
       id="group-R5">
      <path
         id="path2"
         d="m 234.527,554.688 -5.48,-2.735 h -18.086 l -16.434,-5.48 -10.957,-10.957 -73.429,-328.797 5.48,-10.949 10.957,-5.489 h 28.496 l 2.739,-2.734 -2.739,-5.477 -5.484,-2.746 H 117.809 L 76.7148,182.07 35.6094,179.324 H 2.73438 L 0,182.07 l 2.73438,5.477 5.48437,2.734 H 27.9453 l 16.4336,5.489 10.9649,10.949 73.4262,328.797 -5.481,10.957 -10.953,5.48 H 86.5781 l -2.7383,2.735 2.7383,5.488 5.4766,2.742 h 30.1363 l 41.106,-2.742 41.09,2.742 h 30.14 l 2.739,-2.742 -2.739,-5.488"
         style="fill:#171412;fill-opacity:1;fill-rule:nonzero;stroke:none"
         transform="matrix(0.13333333,0,0,-0.13333333,0,84.346667)" />
      <path
         id="path3"
         d="m 366.035,173.848 c -21.918,0 -34.531,13.699 -34.531,35.625 l 54.805,198.914 -6.579,6.574 c -52.05,0 -111.785,-79.465 -131.511,-178.086 l -10.957,-54.805 -2.742,-2.746 h -43.836 l -2.746,2.746 54.8,241.114 -2.742,2.742 h -31.23 l -1.102,1.074 2.195,4.395 2.739,2.746 5.476,2.742 h 71.242 l 2.739,-2.742 -30.137,-115.078 c 41.102,82.195 83.844,123.3 128.773,123.3 21.922,0 38.364,-13.711 43.844,-35.625 l -52.058,-189.054 2.734,-10.965 10.961,-5.469 16.441,16.434 16.442,24.66 8.215,8.222 5.484,2.743 2.734,-2.743 C 423.57,201.25 393.43,173.848 366.035,173.848"
         style="fill:#171412;fill-opacity:1;fill-rule:nonzero;stroke:none"
         transform="matrix(0.13333333,0,0,-0.13333333,0,84.346667)" />
      <path
         id="path4"
         d="M 667.395,321.805 C 620.816,228.652 566.02,173.848 519.438,173.848 c -13.696,0 -27.395,8.222 -35.614,21.922 v 27.402 c 0,73.976 32.871,147.949 84.93,200.012 H 552.32 l -49.324,-16.446 -10.953,-21.914 v -30.148 l -2.746,-2.742 h -2.738 l -13.7,27.402 v 27.402 c 0,16.446 10.965,27.403 27.399,27.403 h 76.715 l 10.961,5.476 h 8.222 l 2.739,-2.734 v -5.488 l -5.481,-5.469 c -43.84,-43.836 -60.273,-93.164 -60.273,-180.84 v -32.871 l 10.961,-10.965 c 65.753,32.871 115.074,120.555 115.074,202.742 v 21.934 l 41.09,13.691 10.964,-10.965 v -19.179 l -43.835,-87.668"
         style="fill:#171412;fill-opacity:1;fill-rule:nonzero;stroke:none"
         transform="matrix(0.13333333,0,0,-0.13333333,0,84.346667)" />
      <path
         id="path5"
         d="m 845.453,430.293 c -41.094,0 -82.191,-59.172 -93.152,-133.145 l 8.219,2.735 c 65.757,21.922 109.597,60.273 109.597,104.109 0,16.438 -9.316,26.301 -24.664,26.301 z M 751.211,286.18 749.566,280.711 V 267 c 0,-41.094 16.434,-65.75 43.832,-65.75 30.137,0 57.54,21.922 76.719,57.527 l 5.481,5.489 5.476,2.734 2.739,-2.734 v -2.735 c -27.391,-54.812 -65.754,-87.683 -106.856,-87.683 -49.312,0 -76.719,30.136 -76.719,82.195 0,95.891 71.242,186.32 147.953,186.32 35.622,0 60.282,-24.66 60.282,-60.273 -21.918,-43.848 -71.239,-73.985 -157.262,-95.91"
         style="fill:#171412;fill-opacity:1;fill-rule:nonzero;stroke:none"
         transform="matrix(0.13333333,0,0,-0.13333333,0,84.346667)" />
      <path
         id="path6"
         d="m 1081.06,368.379 c -13.7,0 -21.91,8.223 -24.66,21.922 v 2.734 l 19.18,19.18 c -6.57,10.969 -19.18,16.437 -38.35,16.437 -35.62,0 -60.277,-20.265 -60.277,-46.562 0,-20.293 13.695,-35.625 52.047,-54.817 27.4,-13.691 43.84,-30.125 49.33,-52.058 0,-57.531 -49.33,-104.102 -112.346,-104.102 -41.089,0 -73.972,24.657 -73.972,54.793 0,16.438 12.601,30.137 30.14,30.137 13.692,0 24.661,-9.863 27.399,-24.656 v -2.735 l -21.922,-21.933 c 6.574,-13.692 21.922,-21.906 41.098,-21.906 36.713,0 65.753,24.66 65.753,57.531 0,21.922 -13.69,38.367 -52.046,57.539 -21.926,10.957 -39.461,27.39 -49.325,49.324 0,53.691 43.844,93.156 106.861,93.156 40,0 68.49,-19.179 68.49,-46.593 0,-16.434 -10.96,-27.391 -27.4,-27.391"
         style="fill:#171412;fill-opacity:1;fill-rule:nonzero;stroke:none"
         transform="matrix(0.13333333,0,0,-0.13333333,0,84.346667)" />
      <path
         id="path7"
         d="m 1267.35,423.184 -5.47,-2.754 h -48.23 l -2.19,-4.375 -50.96,-195.617 8.22,-13.719 16.44,-5.469 16.44,16.434 16.44,24.66 8.22,8.222 5.48,2.743 2.74,-2.743 c -21.92,-52.062 -49.32,-76.718 -84.93,-76.718 -23.57,0 -40.01,16.433 -40.01,39.453 l 58.09,207.129 h -42.75 l -2.74,2.754 2.74,5.468 5.48,2.743 32.88,5.488 13.69,13.703 21.93,43.836 38.35,19.172 2.75,-5.481 -24.67,-73.972 54.8,2.742 2.75,-2.742 -5.49,-10.957"
         style="fill:#171412;fill-opacity:1;fill-rule:nonzero;stroke:none"
         transform="matrix(0.13333333,0,0,-0.13333333,0,84.346667)" />
      <path
         id="path8"
         d="m 1349.54,499.891 c -17.53,0 -30.14,12.609 -30.14,30.136 0,17.532 12.61,30.149 30.14,30.149 17.54,0 30.14,-12.617 30.14,-30.149 0,-17.527 -12.6,-30.136 -30.14,-30.136 z m -68.5,-326.043 c -20.27,0 -34.52,13.699 -34.52,35.625 l 59.18,213.711 -2.74,2.742 h -33.97 l -1.1,1.074 2.2,4.395 2.73,2.746 5.49,2.742 h 73.97 l 2.74,-2.742 -59.18,-216.457 4.39,-10.965 10.95,-5.469 16.44,16.434 16.44,24.66 8.22,8.222 5.48,2.743 2.75,-2.743 c -21.93,-49.316 -52.06,-76.718 -79.47,-76.718"
         style="fill:#171412;fill-opacity:1;fill-rule:nonzero;stroke:none"
         transform="matrix(0.13333333,0,0,-0.13333333,0,84.346667)" />
      <path
         id="path9"
         d="m 1563.23,406.738 -19.18,19.188 c -67.39,0 -123.29,-93.164 -123.29,-205.488 l 10.95,-10.965 c 41.11,0 104.12,90.41 131.52,183.562 z m 50.42,10.965 -80.55,-298.652 c -30.14,-46.5822 -76.72,-71.2307 -137,-71.2307 -43.84,0 -73.98,21.9063 -73.98,52.0625 0,18.0742 12.61,30.1252 30.14,30.1252 13.71,0 24.66,-10.957 24.66,-24.656 v -2.735 L 1355,80.6914 c 9.32,-12.0391 24.66,-19.1797 41.1,-19.1797 45.48,0 81.1,35.6172 101.38,101.3793 l 46.57,150.691 c -41.09,-82.195 -90.42,-131.512 -131.51,-131.512 -19.19,0 -32.88,8.211 -41.1,27.403 v 16.433 c 0,117.805 76.72,213.711 169.88,213.711 h 5.47 l 32.88,-16.433 32.88,16.433 h 14.79 v -8.222 l -13.69,-13.692"
         style="fill:#171412;fill-opacity:1;fill-rule:nonzero;stroke:none"
         transform="matrix(0.13333333,0,0,-0.13333333,0,84.346667)" />
      <path
         id="path10"
         d="m 1812.53,403.992 -19.17,19.192 c -63.02,0 -126.04,-104.121 -126.04,-210.969 l 10.97,-10.965 c 46.57,0 112.33,93.152 134.24,191.785 z m -19.17,-230.144 c -18.09,0 -30.14,10.965 -32.88,30.136 l 35.61,106.856 C 1755,220.438 1708.42,173.848 1659.1,173.848 c -21.92,0 -35.61,10.965 -41.09,32.871 v 10.965 c 0,115.078 82.19,219.199 175.35,219.199 h 2.73 l 32.88,-16.453 19.18,19.187 h 19.18 l 5.48,-5.476 -63.02,-216.457 2.74,-10.965 10.97,-5.469 16.44,16.434 16.43,24.66 8.22,8.222 5.48,2.743 2.74,-2.743 c -21.92,-49.316 -52.06,-76.718 -79.45,-76.718"
         style="fill:#171412;fill-opacity:1;fill-rule:nonzero;stroke:none"
         transform="matrix(0.13333333,0,0,-0.13333333,0,84.346667)" />
      <path
         id="path11"
         d="m 2048.14,423.184 -5.47,-2.754 h -48.23 l -2.19,-4.375 -50.96,-195.617 8.22,-13.719 16.44,-5.469 16.44,16.434 16.44,24.66 8.22,8.222 5.48,2.743 2.73,-2.743 c -21.92,-52.062 -49.31,-76.718 -84.93,-76.718 -23.57,0 -40,16.433 -40,39.453 l 58.08,207.129 h -42.74 l -2.75,2.754 2.75,5.468 5.48,2.743 32.88,5.488 13.69,13.703 21.93,43.836 38.35,19.172 2.75,-5.481 -24.67,-73.972 54.8,2.742 2.74,-2.742 -5.48,-10.957"
         style="fill:#171412;fill-opacity:1;fill-rule:nonzero;stroke:none"
         transform="matrix(0.13333333,0,0,-0.13333333,0,84.346667)" />
      <path
         id="path12"
         d="m 2130.32,499.891 c -17.53,0 -30.13,12.609 -30.13,30.136 0,17.532 12.6,30.149 30.13,30.149 17.55,0 30.14,-12.617 30.14,-30.149 0,-17.527 -12.59,-30.136 -30.14,-30.136 z m -68.49,-326.043 c -20.27,0 -34.52,13.699 -34.52,35.625 l 59.18,213.711 -2.74,2.742 h -33.97 l -1.1,1.074 2.19,4.395 2.74,2.746 5.48,2.742 h 73.98 l 2.74,-2.742 -59.18,-216.457 4.38,-10.965 10.96,-5.469 16.43,16.434 16.45,24.66 8.22,8.222 5.47,2.743 2.75,-2.743 c -21.92,-49.316 -52.06,-76.718 -79.46,-76.718"
         style="fill:#171412;fill-opacity:1;fill-rule:nonzero;stroke:none"
         transform="matrix(0.13333333,0,0,-0.13333333,0,84.346667)" />
      <path
         id="path13"
         d="m 2365.94,321.805 c -46.58,-93.153 -101.37,-147.957 -147.96,-147.957 -13.69,0 -27.39,8.222 -35.61,21.922 v 27.402 c 0,73.976 32.87,147.949 84.93,200.012 h -16.43 l -49.33,-16.446 -10.95,-21.914 v -30.148 l -2.74,-2.742 h -2.74 l -13.7,27.402 v 27.402 c 0,16.446 10.96,27.403 27.4,27.403 h 76.71 l 10.96,5.476 h 8.22 l 2.75,-2.734 v -5.488 l -5.49,-5.469 c -43.84,-43.836 -60.28,-93.164 -60.28,-180.84 v -32.871 l 10.96,-10.965 c 65.76,32.871 115.08,120.555 115.08,202.742 v 21.934 l 41.1,13.691 10.96,-10.965 v -19.179 l -43.84,-87.668"
         style="fill:#171412;fill-opacity:1;fill-rule:nonzero;stroke:none"
         transform="matrix(0.13333333,0,0,-0.13333333,0,84.346667)" />
      <path
         id="path14"
         d="m 2544,430.293 c -41.09,0 -82.19,-59.172 -93.15,-133.145 l 8.22,2.735 c 65.75,21.922 109.59,60.273 109.59,104.109 0,16.438 -9.31,26.301 -24.66,26.301 z m -94.24,-144.113 -1.65,-5.469 V 267 c 0,-41.094 16.44,-65.75 43.83,-65.75 30.14,0 57.55,21.922 76.72,57.527 l 5.49,5.489 5.48,2.734 2.73,-2.734 v -2.735 c -27.39,-54.812 -65.75,-87.683 -106.85,-87.683 -49.32,0 -76.72,30.136 -76.72,82.195 0,95.891 71.23,186.32 147.95,186.32 35.62,0 60.28,-24.66 60.28,-60.273 -21.92,-43.848 -71.23,-73.985 -157.26,-95.91"
         style="fill:#171412;fill-opacity:1;fill-rule:nonzero;stroke:none"
         transform="matrix(0.13333333,0,0,-0.13333333,0,84.346667)" />
      <path
         id="path15"
         d="m 2919.33,549.207 h -21.91 l -16.44,-5.469 -8.22,-8.222 -32.88,-150.692 2.74,-5.488 h 41.1 c 60.27,0 106.85,46.59 106.85,106.855 0,38.36 -27.4,63.016 -71.24,63.016 z m 142.48,-367.137 -5.48,-2.746 h -21.92 c -38.36,0 -65.76,10.957 -90.42,35.617 l -43.83,131.524 -10.97,10.965 -16.43,8.215 h -35.62 l -2.74,-2.747 -35.62,-158.914 8.22,-8.214 16.44,-5.489 h 21.92 l 2.74,-2.734 -2.74,-5.477 -5.48,-2.746 h -30.14 l -43.84,2.746 -43.83,-2.746 h -29.05 l -2.74,2.746 2.74,5.477 5.48,2.734 h 19.73 l 16.43,5.489 10.97,10.949 73.42,328.797 -5.48,10.957 -10.95,5.48 h -25.76 l -2.74,2.735 2.74,5.488 5.48,2.742 h 27.4 l 43.84,-2.742 43.84,2.742 h 19.17 c 79.46,0 131.52,-32.891 131.52,-82.207 0,-49.316 -46.58,-90.41 -117.82,-106.844 l -5.48,-2.746 16.44,-16.445 68.5,-136.992 21.92,-21.914 10.96,-5.489 h 19.18 l 2.74,-2.734 -2.74,-5.477"
         style="fill:#171412;fill-opacity:1;fill-rule:nonzero;stroke:none"
         transform="matrix(0.13333333,0,0,-0.13333333,0,84.346667)" />
      <path
         id="path16"
         d="m 3196.03,430.293 c -41.1,0 -82.2,-59.172 -93.16,-133.145 l 8.22,2.735 c 65.76,21.922 109.59,60.273 109.59,104.109 0,16.438 -9.31,26.301 -24.65,26.301 z m -94.25,-144.113 -1.65,-5.469 V 267 c 0,-41.094 16.44,-65.75 43.83,-65.75 30.15,0 57.55,21.922 76.72,57.527 l 5.49,5.489 5.48,2.734 2.73,-2.734 v -2.735 c -27.39,-54.812 -65.75,-87.683 -106.85,-87.683 -49.32,0 -76.71,30.136 -76.71,82.195 0,95.891 71.23,186.32 147.94,186.32 35.62,0 60.28,-24.66 60.28,-60.273 -21.92,-43.848 -71.23,-73.985 -157.26,-95.91"
         style="fill:#171412;fill-opacity:1;fill-rule:nonzero;stroke:none"
         transform="matrix(0.13333333,0,0,-0.13333333,0,84.346667)" />
      <path
         id="path17"
         d="m 3448.07,414.961 c -49.32,0 -113.98,-82.199 -131.51,-169.875 l -5.49,-27.402 v -2.743 l 24.67,-24.66 h 5.48 c 60.27,0 117.81,104.121 117.81,213.711 z m -109.59,-238.371 -32.88,16.437 -30.14,-128.7692 2.74,-5.4883 h 36.71 l 1.1,-1.0859 -2.19,-4.3945 -2.75,-2.7344 -5.47,-2.7344 h -116.17 l -1.1,1.086 2.19,4.3828 2.75,2.7461 5.48,2.7343 h 24.65 l 5.48,5.4883 82.19,358.9262 -2.73,2.742 h -31.24 l -1.09,1.074 2.19,4.395 2.74,2.746 5.48,2.742 h 71.23 l 2.75,-2.742 -27.41,-109.602 c 38.36,76.719 84.94,117.824 128.78,117.824 21.92,0 38.36,-10.968 46.57,-30.148 v -24.656 c 0,-109.59 -82.19,-210.969 -169.86,-210.969"
         style="fill:#171412;fill-opacity:1;fill-rule:nonzero;stroke:none"
         transform="matrix(0.13333333,0,0,-0.13333333,0,84.346667)" />
      <path
         id="path18"
         d="m 3667.24,430.293 c -49.32,0 -98.64,-97.531 -98.64,-193.418 0,-31.25 13.7,-50.969 35.62,-50.969 49.32,0 98.64,97.532 98.64,193.43 0,31.23 -13.7,50.957 -35.62,50.957 z m -68.5,-256.445 c -49.31,0 -76.71,32.871 -76.71,82.195 0,101.387 68.49,186.32 150.69,186.32 49.32,0 76.71,-32.89 76.71,-82.207 0,-101.379 -68.49,-186.308 -150.69,-186.308"
         style="fill:#171412;fill-opacity:1;fill-rule:nonzero;stroke:none"
         transform="matrix(0.13333333,0,0,-0.13333333,0,84.346667)" />
      <path
         id="path19"
         d="m 3938.47,368.379 c -8.23,0 -16.44,3.848 -21.93,10.957 l 19.18,38.367 c -37.26,0 -82.19,-71.238 -106.85,-169.883 l -16.44,-65.75 -2.74,-2.746 h -41.09 l -2.75,2.746 53.7,241.114 -2.73,2.742 h -30.14 l -1.1,1.074 2.19,4.395 2.74,2.746 5.48,2.742 h 71.24 l 2.74,-2.742 -43.84,-153.43 c 35.62,106.848 73.98,161.652 115.07,161.652 20.83,0 35.62,-15.363 35.62,-35.625 0,-21.914 -16.43,-38.359 -38.35,-38.359"
         style="fill:#171412;fill-opacity:1;fill-rule:nonzero;stroke:none"
         transform="matrix(0.13333333,0,0,-0.13333333,0,84.346667)" />
      <path
         id="path20"
         d="m 4111.06,423.184 -5.47,-2.754 h -48.23 l -2.19,-4.375 -50.96,-195.617 8.22,-13.719 16.43,-5.469 16.45,16.434 16.43,24.66 8.22,8.222 5.48,2.743 2.74,-2.743 c -21.92,-52.062 -49.32,-76.718 -84.93,-76.718 -23.57,0 -40,16.433 -40,39.453 l 58.08,207.129 h -42.74 l -2.75,2.754 2.75,5.468 5.48,2.743 32.88,5.488 13.69,13.703 21.92,43.836 38.36,19.172 2.75,-5.481 -24.67,-73.972 54.8,2.742 2.74,-2.742 -5.48,-10.957"
         style="fill:#171412;fill-opacity:1;fill-rule:nonzero;stroke:none"
         transform="matrix(0.13333333,0,0,-0.13333333,0,84.346667)" />
      <path
         id="path21"
         d="m 4237.08,430.293 c -41.09,0 -82.19,-59.172 -93.15,-133.145 l 8.22,2.735 c 65.76,21.922 109.59,60.273 109.59,104.109 0,16.438 -9.31,26.301 -24.66,26.301 z m -94.25,-144.113 -1.64,-5.469 V 267 c 0,-41.094 16.44,-65.75 43.83,-65.75 30.15,0 57.55,21.922 76.72,57.527 l 5.48,5.489 5.49,2.734 2.73,-2.734 v -2.735 c -27.4,-54.812 -65.75,-87.683 -106.85,-87.683 -49.32,0 -76.72,30.136 -76.72,82.195 0,95.891 71.24,186.32 147.95,186.32 35.62,0 60.28,-24.66 60.28,-60.273 -21.92,-43.848 -71.23,-73.985 -157.27,-95.91"
         style="fill:#171412;fill-opacity:1;fill-rule:nonzero;stroke:none"
         transform="matrix(0.13333333,0,0,-0.13333333,0,84.346667)" />
      <path
         id="path22"
         d="m 4469.96,368.379 c -8.23,0 -16.45,3.848 -21.93,10.957 l 19.18,38.367 c -37.26,0 -82.2,-71.238 -106.86,-169.883 l -16.43,-65.75 -2.74,-2.746 h -41.1 l -2.74,2.746 53.7,241.114 -2.74,2.742 h -30.14 l -1.1,1.074 2.2,4.395 2.73,2.746 5.49,2.742 h 71.23 l 2.75,-2.742 -43.84,-153.43 c 35.62,106.848 73.98,161.652 115.07,161.652 20.82,0 35.62,-15.363 35.62,-35.625 0,-21.914 -16.44,-38.359 -38.35,-38.359"
         style="fill:#171412;fill-opacity:1;fill-rule:nonzero;stroke:none"
         transform="matrix(0.13333333,0,0,-0.13333333,0,84.346667)" />
      <path
         id="path23"
         d="m 4658.98,368.379 c -13.7,0 -21.92,8.223 -24.65,21.922 v 2.734 l 19.17,19.18 c -6.58,10.969 -19.17,16.437 -38.36,16.437 -35.61,0 -60.27,-20.265 -60.27,-46.562 0,-20.293 13.69,-35.625 52.05,-54.817 27.41,-13.691 43.85,-30.125 49.33,-52.058 0,-57.531 -49.33,-104.102 -112.34,-104.102 -41.1,0 -73.98,24.657 -73.98,54.793 0,16.438 12.61,30.137 30.14,30.137 13.7,0 24.66,-9.863 27.4,-24.656 v -2.735 l -21.92,-21.933 c 6.58,-13.692 21.92,-21.906 41.1,-21.906 36.71,0 65.76,24.66 65.76,57.531 0,21.922 -13.7,38.367 -52.06,57.539 -21.92,10.957 -39.45,27.39 -49.31,49.324 0,53.691 43.83,93.156 106.85,93.156 40,0 68.5,-19.179 68.5,-46.593 0,-16.434 -10.97,-27.391 -27.41,-27.391"
         style="fill:#171412;fill-opacity:1;fill-rule:nonzero;stroke:none"
         transform="matrix(0.13333333,0,0,-0.13333333,0,84.346667)" />
      <path
         id="path24"
         d="m 5127.47,365.645 -109.59,-27.403 c 24.66,-8.215 41.09,-21.914 52.06,-43.84 -24.66,-71.23 -95.9,-123.289 -172.62,-123.289 h -2.73 c -60.28,0 -106.86,41.102 -106.86,98.633 0,65.75 60.28,117.813 150.69,136.992 l 2.75,2.735 c -35.63,13.711 -60.28,43.847 -60.28,71.238 0,49.316 49.32,87.676 115.07,87.676 43.84,0 76.72,-21.914 76.72,-49.305 0,-15.352 -12.06,-27.402 -27.4,-27.402 -15.34,0 -24.66,10.965 -27.4,21.914 v 5.488 l 19.18,19.168 c -8.23,10.957 -21.92,16.438 -41.1,16.438 -38.36,0 -68.5,-32.872 -68.5,-71.231 0,-38.359 16.44,-60.273 55.89,-75.07 l 4.39,-4.395 -2.74,-5.469 -5.48,-2.753 h -16.43 c -68.5,0 -123.3,-54.793 -123.3,-123.29 0,-46.574 30.14,-79.453 76.71,-79.453 h 2.74 c 54.8,0 101.38,32.879 117.82,82.188 -16.44,27.41 -43.84,41.113 -82.19,41.113 l -13.7,-13.703 16.43,-8.223 v -2.742 c 0,-14.797 -9.86,-24.66 -24.66,-24.66 -10.96,0 -19.18,8.215 -19.18,19.18 0,13.703 10.41,25.761 30.14,35.625 l 191.79,95.898 v 2.727 l -43.83,21.933 v 2.735 c 2.73,10.957 13.7,19.168 24.66,19.168 20.27,0 35.61,-17.528 35.61,-41.082 0,-21.926 -8.21,-41.094 -24.66,-57.539"
         style="fill:#171412;fill-opacity:1;fill-rule:nonzero;stroke:none"
         transform="matrix(0.13333333,0,0,-0.13333333,0,84.346667)" />
      <path
         id="path25"
         d="m 5541.15,469.754 -5.48,-5.488 h -5.48 l -2.74,5.488 c 0,43.84 -19.17,71.23 -52.05,79.453 h -68.5 l -16.45,-5.469 -8.21,-8.222 -32.88,-147.957 1.09,-2.735 h 37.27 c 35.61,10.946 53.71,30.137 60.28,63.008 l 1.09,5.488 2.74,2.735 h 8.77 l 1.09,-2.735 -8.21,-35.617 -10.97,-38.367 -5.48,-38.359 -8.22,-35.606 -2.73,-2.746 h -7.13 l -2.19,2.746 c 1.1,5.469 2.74,15.332 2.74,21.902 0,24.661 -12.6,41.106 -34.52,46.594 h -36.71 l -2.75,-2.746 -37.26,-164.402 8.22,-8.215 16.44,-5.477 h 60.28 c 54.8,10.957 90.41,41.094 106.85,90.411 l 3.84,5.496 h 7.12 l 2.74,-5.496 -23.56,-104.114 -3.83,-3.836 -11.51,3.836 h -133.71 l -65.76,2.746 -41.09,-2.746 h -31.79 l -2.73,2.746 2.73,5.477 5.48,2.734 h 19.73 l 16.44,5.489 10.96,10.949 73.43,328.797 -5.48,10.957 -10.97,5.48 h -25.75 l -2.74,2.735 2.74,5.488 5.48,2.742 h 30.14 l 41.11,-2.742 65.74,2.742 h 118.91 l 11.51,3.828 2.74,-3.828 -20.82,-93.164"
         style="fill:#171412;fill-opacity:1;fill-rule:nonzero;stroke:none"
         transform="matrix(0.13333333,0,0,-0.13333333,0,84.346667)" />
      <path
         id="path26"
         d="m 5721.96,403.992 -19.18,19.192 c -65.76,0 -126.04,-101.379 -126.04,-210.969 l 10.97,-10.965 c 46.57,0 112.32,93.152 134.25,191.785 z m 60.28,32.891 -63.03,-219.199 2.75,-10.965 10.96,-5.469 16.44,16.434 16.43,24.66 8.22,8.222 5.48,2.743 2.75,-2.743 c -21.93,-49.316 -52.06,-76.718 -79.46,-76.718 -18.08,0 -30.14,10.965 -32.88,30.136 l 35.61,106.856 c -41.09,-90.402 -87.67,-136.992 -136.98,-136.992 -21.93,0 -35.62,10.965 -41.1,32.871 v 10.965 c 0,115.078 82.19,219.199 175.35,219.199 h 2.73 l 27.41,-13.699 38.35,147.957 -2.74,2.734 h -36.71 l -1.1,1.094 2.2,4.386 2.73,2.735 5.48,2.734 h 76.72 l 2.74,-2.734 -38.35,-145.207"
         style="fill:#171412;fill-opacity:1;fill-rule:nonzero;stroke:none"
         transform="matrix(0.13333333,0,0,-0.13333333,0,84.346667)" />
      <path
         id="path27"
         d="m 5902.76,499.891 c -17.53,0 -30.14,12.609 -30.14,30.136 0,17.532 12.61,30.149 30.14,30.149 17.54,0 30.14,-12.617 30.14,-30.149 0,-17.527 -12.6,-30.136 -30.14,-30.136 z m -68.5,-326.043 c -20.27,0 -34.51,13.699 -34.51,35.625 l 59.18,213.711 -2.75,2.742 h -33.97 l -1.1,1.074 2.2,4.395 2.73,2.746 5.49,2.742 h 73.97 l 2.74,-2.742 -59.18,-216.457 4.39,-10.965 10.95,-5.469 16.44,16.434 16.45,24.66 8.21,8.222 5.48,2.743 2.75,-2.743 c -21.92,-49.316 -52.06,-76.718 -79.47,-76.718"
         style="fill:#171412;fill-opacity:1;fill-rule:nonzero;stroke:none"
         transform="matrix(0.13333333,0,0,-0.13333333,0,84.346667)" />
      <path
         id="path28"
         d="m 6086.32,423.184 -5.49,-2.754 h -48.22 l -2.19,-4.375 -50.96,-195.617 8.22,-13.719 16.44,-5.469 16.44,16.434 16.44,24.66 8.22,8.222 5.47,2.743 2.75,-2.743 c -21.92,-52.062 -49.32,-76.718 -84.94,-76.718 -23.56,0 -40,16.433 -40,39.453 l 58.08,207.129 h -42.74 l -2.74,2.754 2.74,5.468 5.49,2.743 32.87,5.488 13.7,13.703 21.92,43.836 38.36,19.172 2.74,-5.481 -24.66,-73.972 54.79,2.742 2.75,-2.742 -5.48,-10.957"
         style="fill:#171412;fill-opacity:1;fill-rule:nonzero;stroke:none"
         transform="matrix(0.13333333,0,0,-0.13333333,0,84.346667)" />
      <path
         id="path29"
         d="m 6212.34,430.293 c -49.32,0 -98.64,-97.531 -98.64,-193.418 0,-31.25 13.7,-50.969 35.62,-50.969 49.32,0 98.63,97.532 98.63,193.43 0,31.23 -13.7,50.957 -35.61,50.957 z m -68.5,-256.445 c -49.31,0 -76.71,32.871 -76.71,82.195 0,101.387 68.5,186.32 150.69,186.32 49.32,0 76.71,-32.89 76.71,-82.207 0,-101.379 -68.49,-186.308 -150.69,-186.308"
         style="fill:#171412;fill-opacity:1;fill-rule:nonzero;stroke:none"
         transform="matrix(0.13333333,0,0,-0.13333333,0,84.346667)" />
      <path
         id="path30"
         d="m 6483.56,368.379 c -8.22,0 -16.44,3.848 -21.92,10.957 l 19.19,38.367 c -37.27,0 -82.2,-71.238 -106.86,-169.883 l -16.44,-65.75 -2.74,-2.746 h -41.1 l -2.74,2.746 53.7,241.114 -2.74,2.742 h -30.14 l -1.09,1.074 2.19,4.395 2.75,2.746 5.47,2.742 h 71.24 l 2.73,-2.742 -43.83,-153.43 c 35.62,106.848 73.98,161.652 115.07,161.652 20.82,0 35.62,-15.363 35.62,-35.625 0,-21.914 -16.44,-38.359 -38.36,-38.359"
         style="fill:#171412;fill-opacity:1;fill-rule:nonzero;stroke:none"
         transform="matrix(0.13333333,0,0,-0.13333333,0,84.346667)" />
      <path
         id="path31"
         d="m 6672.6,368.379 c -13.7,0 -21.92,8.223 -24.66,21.922 v 2.734 l 19.18,19.18 c -6.58,10.969 -19.18,16.437 -38.36,16.437 -35.62,0 -60.28,-20.265 -60.28,-46.562 0,-20.293 13.7,-35.625 52.06,-54.817 27.4,-13.691 43.84,-30.125 49.32,-52.058 0,-57.531 -49.32,-104.102 -112.33,-104.102 -41.1,0 -73.98,24.657 -73.98,54.793 0,16.438 12.6,30.137 30.14,30.137 13.7,0 24.65,-9.863 27.39,-24.656 v -2.735 l -21.91,-21.933 c 6.58,-13.692 21.91,-21.906 41.09,-21.906 36.72,0 65.77,24.66 65.77,57.531 0,21.922 -13.71,38.367 -52.07,57.539 -21.91,10.957 -39.45,27.39 -49.31,49.324 0,53.691 43.83,93.156 106.85,93.156 40,0 68.5,-19.179 68.5,-46.593 0,-16.434 -10.96,-27.391 -27.4,-27.391"
         style="fill:#171412;fill-opacity:1;fill-rule:nonzero;stroke:none"
         transform="matrix(0.13333333,0,0,-0.13333333,0,84.346667)" />
    </g>
  </g>
</svg>
