<?xml version="1.0" encoding="UTF-8" standalone="no"?>
<!-- Created with Inkscape (http://www.inkscape.org/) -->

<svg
   version="1.1"
   id="svg1"
   width="512.70801"
   height="118.08906"
   viewBox="0 0 512.70801 118.08906"
   sodipodi:docname="IRE-logo-vector.eps"
   xmlns:inkscape="http://www.inkscape.org/namespaces/inkscape"
   xmlns:sodipodi="http://sodipodi.sourceforge.net/DTD/sodipodi-0.dtd"
   xmlns="http://www.w3.org/2000/svg"
   xmlns:svg="http://www.w3.org/2000/svg">
  <defs
     id="defs1">
    <clipPath
       clipPathUnits="userSpaceOnUse"
       id="clipPath5">
      <path
         d="M 3938.18,552.922 V 146.789 H 1204.9 v 406.133 z"
         clip-rule="evenodd"
         id="path5" />
    </clipPath>
    <clipPath
       clipPathUnits="userSpaceOnUse"
       id="clipPath7">
      <path
         d="M 3938.18,552.922 V 146.789 H 1204.9 v 406.133 z"
         clip-rule="evenodd"
         id="path7" />
    </clipPath>
    <clipPath
       clipPathUnits="userSpaceOnUse"
       id="clipPath9">
      <path
         d="M 3938.18,552.922 V 146.789 H 1204.9 v 406.133 z"
         clip-rule="evenodd"
         id="path9" />
    </clipPath>
    <clipPath
       clipPathUnits="userSpaceOnUse"
       id="clipPath11">
      <path
         d="M 3938.18,552.922 V 146.789 H 1204.9 v 406.133 z"
         clip-rule="evenodd"
         id="path11" />
    </clipPath>
    <clipPath
       clipPathUnits="userSpaceOnUse"
       id="clipPath13">
      <path
         d="M 3938.18,552.922 V 146.789 H 1204.9 v 406.133 z"
         clip-rule="evenodd"
         id="path13" />
    </clipPath>
    <clipPath
       clipPathUnits="userSpaceOnUse"
       id="clipPath15">
      <path
         d="M 3938.18,552.922 V 146.789 H 1204.9 v 406.133 z"
         clip-rule="evenodd"
         id="path15" />
    </clipPath>
    <clipPath
       clipPathUnits="userSpaceOnUse"
       id="clipPath17">
      <path
         d="M 3938.18,552.922 V 146.789 H 1204.9 v 406.133 z"
         clip-rule="evenodd"
         id="path17" />
    </clipPath>
    <clipPath
       clipPathUnits="userSpaceOnUse"
       id="clipPath19">
      <path
         d="M 3938.18,552.922 V 146.789 H 1204.9 v 406.133 z"
         clip-rule="evenodd"
         id="path19" />
    </clipPath>
    <clipPath
       clipPathUnits="userSpaceOnUse"
       id="clipPath21">
      <path
         d="M 3938.18,552.922 V 146.789 H 1204.9 v 406.133 z"
         clip-rule="evenodd"
         id="path21" />
    </clipPath>
    <clipPath
       clipPathUnits="userSpaceOnUse"
       id="clipPath23">
      <path
         d="M 3938.18,552.922 V 146.789 H 1204.9 v 406.133 z"
         clip-rule="evenodd"
         id="path23" />
    </clipPath>
    <clipPath
       clipPathUnits="userSpaceOnUse"
       id="clipPath25">
      <path
         d="M 3938.18,552.922 V 146.789 H 1204.9 v 406.133 z"
         clip-rule="evenodd"
         id="path25" />
    </clipPath>
    <clipPath
       clipPathUnits="userSpaceOnUse"
       id="clipPath27">
      <path
         d="M 3938.18,552.922 V 146.789 H 1204.9 v 406.133 z"
         clip-rule="evenodd"
         id="path27" />
    </clipPath>
    <clipPath
       clipPathUnits="userSpaceOnUse"
       id="clipPath29">
      <path
         d="M 3938.18,552.922 V 146.789 H 1204.9 v 406.133 z"
         clip-rule="evenodd"
         id="path29" />
    </clipPath>
    <clipPath
       clipPathUnits="userSpaceOnUse"
       id="clipPath31">
      <path
         d="M 3938.18,552.922 V 146.789 H 1204.9 v 406.133 z"
         clip-rule="evenodd"
         id="path31" />
    </clipPath>
    <clipPath
       clipPathUnits="userSpaceOnUse"
       id="clipPath33">
      <path
         d="M 3938.18,552.922 V 146.789 H 1204.9 v 406.133 z"
         clip-rule="evenodd"
         id="path33" />
    </clipPath>
    <clipPath
       clipPathUnits="userSpaceOnUse"
       id="clipPath35">
      <path
         d="M 3938.18,552.922 V 146.789 H 1204.9 v 406.133 z"
         clip-rule="evenodd"
         id="path35" />
    </clipPath>
    <clipPath
       clipPathUnits="userSpaceOnUse"
       id="clipPath37">
      <path
         d="M 3938.18,552.922 V 146.789 H 1204.9 v 406.133 z"
         clip-rule="evenodd"
         id="path37" />
    </clipPath>
    <clipPath
       clipPathUnits="userSpaceOnUse"
       id="clipPath39">
      <path
         d="M 3938.18,898.578 V 511.18 H 1204.9 v 387.398 z"
         clip-rule="evenodd"
         id="path39" />
    </clipPath>
    <clipPath
       clipPathUnits="userSpaceOnUse"
       id="clipPath41">
      <path
         d="M 3938.18,898.578 V 511.18 H 1204.9 v 387.398 z"
         clip-rule="evenodd"
         id="path41" />
    </clipPath>
    <clipPath
       clipPathUnits="userSpaceOnUse"
       id="clipPath43">
      <path
         d="M 3938.18,898.578 V 511.18 H 1204.9 v 387.398 z"
         clip-rule="evenodd"
         id="path43" />
    </clipPath>
    <clipPath
       clipPathUnits="userSpaceOnUse"
       id="clipPath45">
      <path
         d="M 3938.18,898.578 V 511.18 H 1204.9 v 387.398 z"
         clip-rule="evenodd"
         id="path45" />
    </clipPath>
    <clipPath
       clipPathUnits="userSpaceOnUse"
       id="clipPath47">
      <path
         d="M 3938.18,898.578 V 511.18 H 1204.9 v 387.398 z"
         clip-rule="evenodd"
         id="path47" />
    </clipPath>
    <clipPath
       clipPathUnits="userSpaceOnUse"
       id="clipPath49">
      <path
         d="M 3938.18,898.578 V 511.18 H 1204.9 v 387.398 z"
         clip-rule="evenodd"
         id="path49" />
    </clipPath>
    <clipPath
       clipPathUnits="userSpaceOnUse"
       id="clipPath51">
      <path
         d="M 3938.18,898.578 V 511.18 H 1204.9 v 387.398 z"
         clip-rule="evenodd"
         id="path51" />
    </clipPath>
    <clipPath
       clipPathUnits="userSpaceOnUse"
       id="clipPath53">
      <path
         d="M 3938.18,898.578 V 511.18 H 1204.9 v 387.398 z"
         clip-rule="evenodd"
         id="path53" />
    </clipPath>
    <clipPath
       clipPathUnits="userSpaceOnUse"
       id="clipPath55">
      <path
         d="M 3938.18,898.578 V 511.18 H 1204.9 v 387.398 z"
         clip-rule="evenodd"
         id="path55" />
    </clipPath>
    <clipPath
       clipPathUnits="userSpaceOnUse"
       id="clipPath57">
      <path
         d="M 3938.18,898.578 V 511.18 H 1204.9 v 387.398 z"
         clip-rule="evenodd"
         id="path57" />
    </clipPath>
    <clipPath
       clipPathUnits="userSpaceOnUse"
       id="clipPath59">
      <path
         d="M 3938.18,898.578 V 511.18 H 1204.9 v 387.398 z"
         clip-rule="evenodd"
         id="path59" />
    </clipPath>
    <clipPath
       clipPathUnits="userSpaceOnUse"
       id="clipPath61">
      <path
         d="M 3938.18,898.578 V 511.18 H 1204.9 v 387.398 z"
         clip-rule="evenodd"
         id="path61" />
    </clipPath>
    <clipPath
       clipPathUnits="userSpaceOnUse"
       id="clipPath63">
      <path
         d="M 3938.18,898.578 V 511.18 H 1204.9 v 387.398 z"
         clip-rule="evenodd"
         id="path63" />
    </clipPath>
  </defs>
  <sodipodi:namedview
     id="namedview1"
     pagecolor="#ffffff"
     bordercolor="#666666"
     borderopacity="1.0"
     inkscape:showpageshadow="2"
     inkscape:pageopacity="0.0"
     inkscape:pagecheckerboard="0"
     inkscape:deskcolor="#d1d1d1">
    <inkscape:page
       x="0"
       y="0"
       width="512.70801"
       height="118.08906"
       id="page2"
       margin="0"
       bleed="0" />
  </sodipodi:namedview>
  <g
     id="g1"
     inkscape:groupmode="layer"
     inkscape:label="1"
     transform="translate(-10.857293,-14.458803)">
    <path
       id="path1"
       d="m 488.922,682.059 c -1.82,9.511 -7.942,18.863 -17.742,23.851 -13.649,6.93 -57,4.559 -57,4.559 V 584.422 h 18.582 c 13.597,0 24.316,1.816 32.148,5.437 7.852,3.621 13.762,8.52 17.668,14.7 3.934,6.191 6.41,11.453 7.481,19.32 1.07,7.84 1.582,15.859 1.582,23.992 0,13.301 -0.911,24.68 -2.719,34.188"
       style="fill:#161412;fill-opacity:1;fill-rule:nonzero;stroke:none"
       transform="matrix(0.13333333,0,0,-0.13333333,0,147)" />
    <path
       id="path2"
       d="m 348.559,425.012 v 285.457 h -53.45 V 425.012 h 53.45"
       style="fill:#161412;fill-opacity:1;fill-rule:nonzero;stroke:none"
       transform="matrix(0.13333333,0,0,-0.13333333,0,147)" />
    <path
       id="path3"
       d="M 860.73,505.68 V 406.512 H 613 c 0,0 -2.141,-0.774 -4.699,-1.5 -2.563,-0.723 -7.531,-2.203 -12.961,-3.262 -5.43,-1.039 -12.219,-1.57 -20.379,-1.57 -16.602,0 -29.59,2.629 -38.949,7.922 -9.34,5.257 -16.293,11.828 -20.821,19.668 -4.55,7.89 -7.32,16.402 -8.382,25.609 -1.047,9.199 -1.75,17.891 -2.047,26.051 -0.602,12.379 -1.422,24.359 -2.473,35.992 -1.07,11.629 -3.551,18.848 -7.48,27.918 -3.911,9.051 -9.809,16.32 -17.649,21.738 -7.859,5.453 -18.879,8.141 -33.082,8.141 H 414.18 V 425.012 h 41.679 v -18.5 H 187.781 v 18.5 h 41.649 v 285.457 h -41.649 v 18.48 c 0,0 249.321,0 262,0 11.778,0 24.231,-0.508 37.367,-2.898 13.153,-2.442 25.122,-6.59 36.012,-12.473 10.852,-5.898 20.488,-13.18 27.559,-23.137 7.101,-9.941 10.652,-22.492 10.652,-37.582 0,-12.058 -2.73,-22.418 -8.152,-31.019 -5.438,-8.59 -12.457,-15.621 -21.047,-21.051 -8.602,-5.437 -18.192,-9.598 -28.75,-12.449 -10.594,-2.891 -20.992,-4.77 -31.25,-5.68 v -2.25 c 14.789,-2.73 28.008,-5.441 39.617,-8.148 11.621,-2.723 21.66,-6.813 30.121,-12.223 8.449,-5.449 15.16,-13.008 20.149,-22.668 4.98,-9.641 8.082,-22.641 9.281,-38.93 1.519,-19.011 2.711,-34.281 3.621,-45.73 0.461,-5.742 1.469,-12.352 2.391,-17.672 1.007,-5.801 6.007,-10.027 11.898,-10.027 h 11.691 c 6.661,0 12.059,5.398 12.059,12.066 v 273.391 h -41.801 v 14.562 l 0.141,3.918 H 842.129 V 651.5 h -5.879 c -1.52,5.129 -4.078,11.699 -7.68,19.691 -3.64,8.02 -8.699,15.778 -15.191,23.34 -8.731,10.117 -21.438,15.938 -34.809,15.938 H 678.641 V 584.422 h 25.398 c 11.152,0 20.582,1.578 28.313,4.758 7.668,3.16 14.097,5.929 19.199,11.832 5.129,5.879 9.379,12.968 12.687,21.277 3.321,8.313 6.063,17.602 8.184,27.852 h 5.867 V 509.309 h -5.867 c -2.121,8.761 -4.641,17.191 -7.481,25.351 -2.863,8.149 -6.742,15.328 -11.562,21.5 -4.828,6.211 -10.809,8 -17.879,11.641 -7.121,3.609 -15.941,5.418 -26.469,5.418 h -30.39 V 425.012 h 105.961 c 13.308,0 26.078,5.226 35.57,14.566 8.617,8.442 15.769,18.332 21.519,29.652 5.739,11.321 10.098,23.489 13.137,36.45 z M 81.4297,994.059 V 108.391 H 967.07 V 994.059 H 81.4297"
       style="fill:#161412;fill-opacity:1;fill-rule:nonzero;stroke:none"
       transform="matrix(0.13333333,0,0,-0.13333333,0,147)" />
    <path
       id="path4"
       d="m 1360.38,507.129 h -14.88 l -11.16,-3.719 -5.58,-5.57 -22.32,-102.199 1.86,-3.719 h 27.9 c 40.91,0 72.53,31.59 72.53,72.469 0,26.007 -18.6,42.738 -48.35,42.738 z m 96.7,-249 -3.72,-1.859 h -14.88 c -26.03,0 -44.63,7.429 -61.37,24.16 l -29.76,89.191 -7.43,7.438 -11.16,5.57 h -24.18 l -1.86,-1.859 -24.17,-107.77 5.58,-5.578 11.15,-3.723 h 14.88 l 1.86,-1.847 -1.86,-3.723 -3.72,-1.859 h -20.45 l -29.76,1.859 -29.76,-1.859 h -19.71 l -1.86,1.859 1.86,3.723 3.72,1.847 h 13.39 l 11.16,3.723 7.43,7.43 49.85,222.988 -3.72,7.43 -7.44,3.718 h -17.48 l -1.86,1.852 1.86,3.719 3.72,1.863 h 18.6 l 29.75,-1.863 29.76,1.863 h 13.01 c 53.94,0 89.27,-22.301 89.27,-55.75 0,-33.453 -31.61,-61.32 -79.97,-72.473 l -3.72,-1.847 11.16,-11.153 46.49,-92.91 14.88,-14.867 7.44,-3.723 h 13.02 l 1.86,-1.847 -1.86,-3.723"
       style="fill:#161412;fill-opacity:1;fill-rule:nonzero;stroke:none"
       transform="matrix(0.13333333,0,0,-0.13333333,0,147)"
       clip-path="url(#clipPath5)" />
    <path
       id="path6"
       d="m 1548.2,426.48 c -27.9,0 -55.79,-40.128 -63.23,-90.308 l 5.58,1.859 c 44.63,14.867 74.39,40.879 74.39,70.617 0,11.141 -6.33,17.832 -16.74,17.832 z m -63.98,-97.742 -1.11,-3.718 v -9.29 c 0,-27.871 11.15,-44.589 29.76,-44.589 20.45,0 39.05,14.859 52.07,39.019 l 3.71,3.719 3.73,1.851 1.85,-1.851 v -1.867 c -18.59,-37.16 -44.63,-59.461 -72.52,-59.461 -33.48,0 -52.08,20.449 -52.08,55.75 0,65.039 48.36,126.359 100.43,126.359 24.17,0 40.91,-16.73 40.91,-40.879 -14.87,-29.73 -48.35,-50.172 -106.75,-65.043"
       style="fill:#161412;fill-opacity:1;fill-rule:nonzero;stroke:none"
       transform="matrix(0.13333333,0,0,-0.13333333,0,147)"
       clip-path="url(#clipPath7)" />
    <path
       id="path8"
       d="m 1719.29,416.07 c -33.47,0 -77.36,-55.742 -89.26,-115.199 l -3.73,-18.582 v -1.859 l 16.74,-16.731 h 3.72 c 40.92,0 79.97,70.621 79.97,144.949 z m -74.39,-161.66 -22.32,11.149 -20.45,-87.329 1.85,-3.718 h 24.93 l 0.74,-0.742 -1.49,-2.981 -1.86,-1.848 -3.72,-1.863 h -78.85 l -0.74,0.742 1.48,2.969 1.86,1.859 3.72,1.864 h 16.74 l 3.72,3.718 55.79,243.418 -1.86,1.864 h -21.2 l -0.74,0.738 1.48,2.969 1.86,1.859 3.73,1.863 h 48.35 l 1.86,-1.863 -18.6,-74.328 c 26.04,52.031 57.65,79.91 87.41,79.91 14.88,0 26.04,-7.441 31.61,-20.441 v -16.731 c 0,-74.316 -55.79,-143.078 -115.3,-143.078"
       style="fill:#161412;fill-opacity:1;fill-rule:nonzero;stroke:none"
       transform="matrix(0.13333333,0,0,-0.13333333,0,147)"
       clip-path="url(#clipPath9)" />
    <path
       id="path10"
       d="m 1868.06,426.48 c -33.47,0 -66.95,-66.152 -66.95,-131.191 0,-21.18 9.3,-34.559 24.18,-34.559 33.48,0 66.95,66.149 66.95,131.192 0,21.18 -9.3,34.558 -24.18,34.558 z m -46.49,-173.929 c -33.47,0 -52.07,22.301 -52.07,55.75 0,68.758 46.49,126.359 102.29,126.359 33.47,0 52.07,-22.301 52.07,-55.75 0,-68.75 -46.49,-126.359 -102.29,-126.359"
       style="fill:#161412;fill-opacity:1;fill-rule:nonzero;stroke:none"
       transform="matrix(0.13333333,0,0,-0.13333333,0,147)"
       clip-path="url(#clipPath11)" />
    <path
       id="path12"
       d="m 2052.18,384.488 c -5.58,0 -11.16,2.602 -14.88,7.434 l 13.02,26.008 c -25.3,0 -55.8,-48.309 -72.53,-115.211 l -11.16,-44.59 -1.86,-1.859 h -27.9 l -1.86,1.859 36.45,163.519 -1.86,1.864 h -20.46 l -0.74,0.738 1.49,2.969 1.86,1.859 3.72,1.863 h 48.35 l 1.86,-1.863 -29.75,-104.058 c 24.17,72.468 50.21,109.64 78.11,109.64 14.13,0 24.17,-10.41 24.17,-24.16 0,-14.859 -11.15,-26.012 -26.03,-26.012"
       style="fill:#161412;fill-opacity:1;fill-rule:nonzero;stroke:none"
       transform="matrix(0.13333333,0,0,-0.13333333,0,147)"
       clip-path="url(#clipPath13)" />
    <path
       id="path14"
       d="m 2169.34,421.648 -3.72,-1.859 h -32.73 l -1.49,-2.969 -34.59,-132.679 5.57,-9.289 11.16,-3.711 11.16,11.148 11.16,16.723 5.58,5.578 3.72,1.859 1.86,-1.859 c -14.88,-35.309 -33.48,-52.039 -57.65,-52.039 -16,0 -27.15,11.148 -27.15,26.758 l 39.42,140.48 h -29.01 l -1.86,1.859 1.86,3.723 3.72,1.848 22.32,3.722 9.29,9.289 14.88,29.739 26.04,13 1.86,-3.707 -16.74,-50.184 37.2,1.863 1.86,-1.863 -3.72,-7.43"
       style="fill:#161412;fill-opacity:1;fill-rule:nonzero;stroke:none"
       transform="matrix(0.13333333,0,0,-0.13333333,0,147)"
       clip-path="url(#clipPath15)" />
    <path
       id="path16"
       d="m 2254.88,426.48 c -27.89,0 -55.79,-40.128 -63.23,-90.308 l 5.58,1.859 c 44.64,14.867 74.39,40.879 74.39,70.617 0,11.141 -6.32,17.832 -16.74,17.832 z m -63.97,-97.742 -1.12,-3.718 v -9.29 c 0,-27.871 11.16,-44.589 29.76,-44.589 20.45,0 39.06,14.859 52.07,39.019 l 3.72,3.719 3.72,1.851 1.86,-1.851 v -1.867 c -18.6,-37.16 -44.63,-59.461 -72.53,-59.461 -33.47,0 -52.07,20.449 -52.07,55.75 0,65.039 48.35,126.359 100.42,126.359 24.18,0 40.92,-16.73 40.92,-40.879 -14.88,-29.73 -48.35,-50.172 -106.75,-65.043"
       style="fill:#161412;fill-opacity:1;fill-rule:nonzero;stroke:none"
       transform="matrix(0.13333333,0,0,-0.13333333,0,147)"
       clip-path="url(#clipPath17)" />
    <path
       id="path18"
       d="m 2412.96,384.488 c -5.58,0 -11.16,2.602 -14.88,7.434 l 13.02,26.008 c -25.29,0 -55.79,-48.309 -72.53,-115.211 l -11.16,-44.59 -1.86,-1.859 h -27.9 l -1.86,1.859 36.46,163.519 -1.87,1.864 h -20.45 l -0.75,0.738 1.49,2.969 1.86,1.859 3.72,1.863 h 48.35 l 1.86,-1.863 -29.75,-104.058 c 24.18,72.468 50.21,109.64 78.11,109.64 14.13,0 24.17,-10.41 24.17,-24.16 0,-14.859 -11.16,-26.012 -26.03,-26.012"
       style="fill:#161412;fill-opacity:1;fill-rule:nonzero;stroke:none"
       transform="matrix(0.13333333,0,0,-0.13333333,0,147)"
       clip-path="url(#clipPath19)" />
    <path
       id="path20"
       d="m 2541.27,384.488 c -9.29,0 -14.87,5.571 -16.73,14.864 v 1.859 l 13.01,13.008 c -4.46,7.429 -13.01,11.152 -26.03,11.152 -24.18,0 -40.92,-13.75 -40.92,-31.59 0,-13.75 9.3,-24.16 35.34,-37.172 18.6,-9.289 29.76,-20.437 33.48,-35.3 0,-39.02 -33.48,-70.618 -76.26,-70.618 -27.89,0 -50.21,16.731 -50.21,37.168 0,11.153 8.56,20.442 20.46,20.442 9.3,0 16.74,-6.692 18.6,-16.723 v -1.859 l -14.88,-14.867 c 4.47,-9.293 14.88,-14.864 27.9,-14.864 24.92,0 44.63,16.723 44.63,39.024 0,14.867 -9.3,26.008 -35.33,39.019 -14.88,7.43 -26.78,18.578 -33.48,33.449 0,36.418 29.75,63.18 72.53,63.18 27.15,0 46.49,-13.012 46.49,-31.59 0,-11.148 -7.44,-18.582 -18.6,-18.582"
       style="fill:#161412;fill-opacity:1;fill-rule:nonzero;stroke:none"
       transform="matrix(0.13333333,0,0,-0.13333333,0,147)"
       clip-path="url(#clipPath21)" />
    <path
       id="path22"
       d="m 2859.28,382.629 -74.38,-18.578 c 16.73,-5.582 27.9,-14.871 35.33,-29.731 -16.74,-48.32 -65.09,-83.629 -117.16,-83.629 h -1.86 c -40.92,0 -72.53,27.879 -72.53,66.899 0,44.601 40.91,79.898 102.28,92.91 l 1.87,1.859 c -24.18,9.289 -40.92,29.731 -40.92,48.313 0,33.449 33.47,59.457 78.11,59.457 29.75,0 52.07,-14.859 52.07,-33.438 0,-10.41 -8.18,-18.582 -18.6,-18.582 -10.41,0 -16.73,7.43 -18.59,14.86 v 3.722 l 13.02,13.008 c -5.58,7.43 -14.88,11.141 -27.9,11.141 -26.04,0 -46.49,-22.289 -46.49,-48.309 0,-26.019 11.15,-40.883 37.93,-50.91 l 2.98,-2.973 -1.86,-3.718 -3.72,-1.86 h -11.16 c -46.49,0 -83.69,-37.16 -83.69,-83.621 0,-31.59 20.46,-53.89 52.07,-53.89 h 1.87 c 37.19,0 68.81,22.3 79.97,55.75 -11.16,18.582 -29.76,27.871 -55.8,27.871 l -9.29,-9.289 11.15,-5.571 v -1.859 c 0,-10.039 -6.69,-16.731 -16.74,-16.731 -7.44,0 -13.01,5.579 -13.01,13.008 0,9.293 7.06,17.473 20.45,24.16 l 130.19,65.032 v 1.859 l -29.76,14.871 v 1.852 c 1.86,7.437 9.3,13.008 16.74,13.008 13.76,0 24.17,-11.891 24.17,-27.872 0,-14.867 -5.57,-27.867 -16.74,-39.019"
       style="fill:#161412;fill-opacity:1;fill-rule:nonzero;stroke:none"
       transform="matrix(0.13333333,0,0,-0.13333333,0,147)"
       clip-path="url(#clipPath23)" />
    <path
       id="path24"
       d="m 3140.1,453.238 -3.72,-3.718 h -3.72 l -1.86,3.718 c 0,29.731 -13.02,48.313 -35.34,53.891 h -46.49 l -11.16,-3.719 -5.58,-5.57 -22.31,-100.352 0.74,-1.847 h 25.29 c 24.18,7.429 36.45,20.429 40.91,42.738 l 0.75,3.711 1.86,1.859 h 5.95 l 0.75,-1.859 -5.59,-24.16 -7.43,-26.008 -3.72,-26.012 -5.58,-24.16 -1.86,-1.859 h -4.84 l -1.48,1.859 c 0.74,3.711 1.85,10.398 1.85,14.859 0,16.731 -8.55,27.879 -23.43,31.59 h -24.92 l -1.86,-1.847 -25.29,-111.5 5.58,-5.571 11.15,-3.722 h 40.92 c 37.19,7.441 61.37,27.871 72.53,61.32 l 2.6,3.723 h 4.84 l 1.86,-3.723 -16,-70.609 -2.6,-2.598 -7.81,2.598 h -90.75 l -44.64,1.859 -27.89,-1.859 h -21.58 l -1.86,1.859 1.86,3.723 3.72,1.847 h 13.39 l 11.16,3.723 7.44,7.43 49.84,222.988 -3.72,7.43 -7.44,3.718 h -17.48 l -1.86,1.852 1.86,3.719 3.72,1.863 h 20.46 l 27.89,-1.863 44.64,1.863 h 80.71 l 7.81,2.598 1.86,-2.598 -14.13,-63.184"
       style="fill:#161412;fill-opacity:1;fill-rule:nonzero;stroke:none"
       transform="matrix(0.13333333,0,0,-0.13333333,0,147)"
       clip-path="url(#clipPath25)" />
    <path
       id="path26"
       d="m 3262.83,408.648 -13.01,13 c -44.64,0 -85.56,-68.75 -85.56,-143.078 l 7.45,-7.429 c 31.61,0 76.25,63.179 91.12,130.07 z m 40.92,22.293 -42.78,-148.652 1.86,-7.437 7.44,-3.711 11.16,11.148 11.16,16.723 5.58,5.578 3.72,1.859 1.86,-1.859 c -14.88,-33.449 -35.34,-52.039 -53.93,-52.039 -12.28,0 -20.46,7.437 -22.32,20.449 l 24.17,72.461 c -27.89,-61.32 -59.51,-92.91 -92.99,-92.91 -14.87,0 -24.17,7.437 -27.89,22.301 v 7.437 c 0,78.039 55.79,148.652 119.03,148.652 h 1.85 l 18.6,-9.293 26.04,100.34 -1.86,1.864 h -24.92 l -0.75,0.75 1.49,2.968 1.86,1.86 3.72,1.851 h 52.08 l 1.86,-1.851 -26.04,-98.489"
       style="fill:#161412;fill-opacity:1;fill-rule:nonzero;stroke:none"
       transform="matrix(0.13333333,0,0,-0.13333333,0,147)"
       clip-path="url(#clipPath27)" />
    <path
       id="path28"
       d="m 3385.57,473.68 c -11.9,0 -20.45,8.55 -20.45,20.441 0,11.899 8.55,20.438 20.45,20.438 11.9,0 20.46,-8.539 20.46,-20.438 0,-11.891 -8.56,-20.441 -20.46,-20.441 z m -46.49,-221.129 c -13.77,0 -23.43,9.301 -23.43,24.16 l 40.17,144.937 -1.86,1.864 h -23.06 l -0.75,0.738 1.49,2.969 1.86,1.859 3.72,1.863 h 50.21 l 1.86,-1.863 -40.17,-146.789 2.97,-7.437 7.45,-3.711 11.15,11.148 11.16,16.723 5.58,5.578 3.72,1.859 1.86,-1.859 c -14.87,-33.449 -35.33,-52.039 -53.93,-52.039"
       style="fill:#161412;fill-opacity:1;fill-rule:nonzero;stroke:none"
       transform="matrix(0.13333333,0,0,-0.13333333,0,147)"
       clip-path="url(#clipPath29)" />
    <path
       id="path30"
       d="m 3510.17,421.648 -3.72,-1.859 h -32.73 l -1.49,-2.969 -34.59,-132.679 5.58,-9.289 11.16,-3.711 11.15,11.148 11.16,16.723 5.58,5.578 3.72,1.859 1.86,-1.859 c -14.88,-35.309 -33.47,-52.039 -57.65,-52.039 -15.99,0 -27.15,11.148 -27.15,26.758 l 39.43,140.48 h -29.02 l -1.86,1.859 1.86,3.723 3.72,1.848 22.32,3.722 9.3,9.289 14.87,29.739 26.04,13 1.86,-3.707 -16.73,-50.184 37.19,1.863 1.86,-1.863 -3.72,-7.43"
       style="fill:#161412;fill-opacity:1;fill-rule:nonzero;stroke:none"
       transform="matrix(0.13333333,0,0,-0.13333333,0,147)"
       clip-path="url(#clipPath31)" />
    <path
       id="path32"
       d="m 3595.72,426.48 c -33.48,0 -66.96,-66.152 -66.96,-131.191 0,-21.18 9.31,-34.559 24.18,-34.559 33.48,0 66.95,66.149 66.95,131.192 0,21.18 -9.3,34.558 -24.17,34.558 z m -46.5,-173.929 c -33.47,0 -52.07,22.301 -52.07,55.75 0,68.758 46.49,126.359 102.29,126.359 33.47,0 52.07,-22.301 52.07,-55.75 0,-68.75 -46.49,-126.359 -102.29,-126.359"
       style="fill:#161412;fill-opacity:1;fill-rule:nonzero;stroke:none"
       transform="matrix(0.13333333,0,0,-0.13333333,0,147)"
       clip-path="url(#clipPath33)" />
    <path
       id="path34"
       d="m 3779.83,384.488 c -5.58,0 -11.16,2.602 -14.88,7.434 l 13.02,26.008 c -25.3,0 -55.8,-48.309 -72.53,-115.211 l -11.16,-44.59 -1.86,-1.859 h -27.9 l -1.86,1.859 36.45,163.519 -1.86,1.864 h -20.45 l -0.75,0.738 1.49,2.969 1.86,1.859 3.72,1.863 h 48.35 l 1.86,-1.863 -29.76,-104.058 c 24.18,72.468 50.22,109.64 78.11,109.64 14.14,0 24.18,-10.41 24.18,-24.16 0,-14.859 -11.15,-26.012 -26.03,-26.012"
       style="fill:#161412;fill-opacity:1;fill-rule:nonzero;stroke:none"
       transform="matrix(0.13333333,0,0,-0.13333333,0,147)"
       clip-path="url(#clipPath35)" />
    <path
       id="path36"
       d="m 3908.15,384.488 c -9.3,0 -14.88,5.571 -16.75,14.864 v 1.859 l 13.02,13.008 c -4.46,7.429 -13.02,11.152 -26.03,11.152 -24.18,0 -40.92,-13.75 -40.92,-31.59 0,-13.75 9.3,-24.16 35.34,-37.172 18.59,-9.289 29.76,-20.437 33.47,-35.3 0,-39.02 -33.47,-70.618 -76.25,-70.618 -27.89,0 -50.21,16.731 -50.21,37.168 0,11.153 8.55,20.442 20.46,20.442 9.3,0 16.74,-6.692 18.6,-16.723 v -1.859 L 3804,274.852 c 4.46,-9.293 14.88,-14.864 27.89,-14.864 24.92,0 44.64,16.723 44.64,39.024 0,14.867 -9.3,26.008 -35.33,39.019 -14.88,7.43 -26.79,18.578 -33.48,33.449 0,36.418 29.75,63.18 72.53,63.18 27.15,0 46.49,-13.012 46.49,-31.59 0,-11.148 -7.44,-18.582 -18.59,-18.582"
       style="fill:#161412;fill-opacity:1;fill-rule:nonzero;stroke:none"
       transform="matrix(0.13333333,0,0,-0.13333333,0,147)"
       clip-path="url(#clipPath37)" />
    <path
       id="path38"
       d="m 1364.09,872.711 -3.71,-1.859 h -12.28 l -11.16,-3.711 -7.44,-7.43 -49.84,-222.992 3.72,-7.43 7.44,-3.719 h 19.34 l 1.86,-1.859 -1.86,-3.723 -3.72,-1.847 h -21.57 l -27.9,1.847 -27.9,-1.847 h -22.31 l -1.86,1.847 1.86,3.723 3.72,1.859 h 13.39 l 11.16,3.719 7.43,7.43 49.85,222.992 -3.72,7.43 -7.44,3.711 h -17.48 l -1.86,1.859 1.86,3.719 3.72,1.859 h 20.45 l 27.9,-1.859 27.9,1.859 h 20.45 l 1.86,-1.859 -1.86,-3.719"
       style="fill:#161412;fill-opacity:1;fill-rule:nonzero;stroke:none"
       transform="matrix(0.13333333,0,0,-0.13333333,0,147)"
       clip-path="url(#clipPath39)" />
    <path
       id="path40"
       d="m 1453.36,614.422 c -14.88,0 -23.43,9.289 -23.43,24.156 l 37.19,134.91 -4.46,4.453 c -35.34,0 -75.88,-53.89 -89.27,-120.781 l -7.44,-37.172 -1.86,-1.847 h -29.75 l -1.87,1.847 37.2,163.532 -1.86,1.859 h -21.2 l -0.74,0.742 1.48,2.969 1.86,1.859 3.72,1.86 h 48.36 l 1.86,-1.86 -20.46,-78.039 c 27.9,55.738 56.91,83.621 87.41,83.621 14.87,0 26.03,-9.293 29.75,-24.16 l -35.33,-128.223 1.86,-7.429 7.44,-3.707 11.15,11.136 11.16,16.731 5.58,5.57 3.72,1.86 1.86,-1.86 c -14.87,-33.437 -35.33,-52.027 -53.93,-52.027"
       style="fill:#161412;fill-opacity:1;fill-rule:nonzero;stroke:none"
       transform="matrix(0.13333333,0,0,-0.13333333,0,147)"
       clip-path="url(#clipPath41)" />
    <path
       id="path42"
       d="m 1657.93,714.762 c -31.62,-63.184 -68.81,-100.34 -100.43,-100.34 -9.3,0 -18.6,5.566 -24.18,14.867 v 18.582 c 0,50.168 22.32,100.34 57.65,135.649 h -11.15 l -33.48,-11.149 -7.44,-14.871 v -20.43 l -1.86,-1.859 h -1.86 l -9.3,18.578 v 18.582 c 0,11.149 7.44,18.578 18.61,18.578 h 52.06 l 7.45,3.723 h 5.58 l 1.85,-1.863 v -3.719 l -3.72,-3.711 c -29.75,-29.731 -40.91,-63.18 -40.91,-122.641 v -22.297 l 7.44,-7.429 c 44.63,22.289 78.11,81.75 78.11,137.5 v 14.867 l 27.89,9.293 7.45,-7.434 V 774.23 l -29.76,-59.468"
       style="fill:#161412;fill-opacity:1;fill-rule:nonzero;stroke:none"
       transform="matrix(0.13333333,0,0,-0.13333333,0,147)"
       clip-path="url(#clipPath43)" />
    <path
       id="path44"
       d="m 1778.8,788.352 c -27.89,0 -55.79,-40.141 -63.23,-90.313 l 5.58,1.859 c 44.64,14.864 74.39,40.883 74.39,70.614 0,11.148 -6.32,17.84 -16.74,17.84 z m -63.97,-97.743 -1.11,-3.718 v -9.289 c 0,-27.872 11.15,-44.59 29.75,-44.59 20.46,0 39.05,14.859 52.07,39.019 l 3.72,3.719 3.72,1.852 1.86,-1.852 v -1.871 c -18.59,-37.16 -44.64,-59.457 -72.53,-59.457 -33.47,0 -52.08,20.437 -52.08,55.75 0,65.039 48.36,126.359 100.43,126.359 24.18,0 40.92,-16.73 40.92,-40.883 -14.88,-29.738 -48.35,-50.179 -106.75,-65.039"
       style="fill:#161412;fill-opacity:1;fill-rule:nonzero;stroke:none"
       transform="matrix(0.13333333,0,0,-0.13333333,0,147)"
       clip-path="url(#clipPath45)" />
    <path
       id="path46"
       d="m 1938.73,746.359 c -9.29,0 -14.88,5.571 -16.73,14.86 v 1.859 l 13.02,13 c -4.47,7.442 -13.02,11.16 -26.04,11.16 -24.18,0 -40.92,-13.75 -40.92,-31.59 0,-13.757 9.31,-24.16 35.34,-37.168 18.6,-9.289 29.76,-20.441 33.48,-35.3 0,-39.032 -33.48,-70.621 -76.25,-70.621 -27.9,0 -50.22,16.73 -50.22,37.171 0,11.149 8.55,20.442 20.46,20.442 9.3,0 16.74,-6.692 18.6,-16.731 v -1.863 l -14.88,-14.859 c 4.46,-9.289 14.88,-14.86 27.9,-14.86 24.92,0 44.63,16.719 44.63,39.02 0,14.871 -9.3,26.012 -35.33,39.019 -14.88,7.43 -26.78,18.582 -33.48,33.454 0,36.418 29.75,63.179 72.53,63.179 27.15,0 46.49,-13.011 46.49,-31.59 0,-11.152 -7.43,-18.582 -18.6,-18.582"
       style="fill:#161412;fill-opacity:1;fill-rule:nonzero;stroke:none"
       transform="matrix(0.13333333,0,0,-0.13333333,0,147)"
       clip-path="url(#clipPath47)" />
    <path
       id="path48"
       d="m 2065.2,783.52 -3.72,-1.86 h -32.74 l -1.49,-2.969 -34.58,-132.679 5.57,-9.293 11.16,-3.707 11.16,11.136 11.16,16.731 5.58,5.57 3.72,1.86 1.86,-1.86 c -14.88,-35.301 -33.48,-52.027 -57.65,-52.027 -16,0 -27.16,11.148 -27.16,26.758 l 39.43,140.48 h -29.01 l -1.86,1.86 1.86,3.718 3.72,1.852 22.31,3.719 9.3,9.293 14.88,29.726 26.04,13.012 1.86,-3.711 -16.74,-50.18 37.2,1.86 1.85,-1.86 -3.71,-7.429"
       style="fill:#161412;fill-opacity:1;fill-rule:nonzero;stroke:none"
       transform="matrix(0.13333333,0,0,-0.13333333,0,147)"
       clip-path="url(#clipPath49)" />
    <path
       id="path50"
       d="m 2120.99,835.551 c -11.91,0 -20.46,8.551 -20.46,20.437 0,11.891 8.55,20.442 20.46,20.442 11.9,0 20.45,-8.551 20.45,-20.442 0,-11.886 -8.55,-20.437 -20.45,-20.437 z m -46.5,-221.129 c -13.76,0 -23.43,9.289 -23.43,24.156 l 40.17,144.942 -1.86,1.859 h -23.06 l -0.75,0.742 1.49,2.969 1.86,1.859 3.72,1.86 h 50.22 l 1.85,-1.86 -40.17,-146.801 2.98,-7.429 7.44,-3.707 11.16,11.136 11.16,16.731 5.58,5.57 3.71,1.86 1.86,-1.86 c -14.88,-33.437 -35.33,-52.027 -53.93,-52.027"
       style="fill:#161412;fill-opacity:1;fill-rule:nonzero;stroke:none"
       transform="matrix(0.13333333,0,0,-0.13333333,0,147)"
       clip-path="url(#clipPath51)" />
    <path
       id="path52"
       d="m 2266.04,772.371 -13.02,13.008 c -45.75,0 -83.69,-63.18 -83.69,-139.367 l 7.44,-7.434 c 27.9,0 70.67,61.32 89.27,124.5 z m 34.21,7.43 -54.67,-202.539 c -20.46,-31.59 -52.08,-48.321 -92.98,-48.321 -29.76,0 -50.22,14.868 -50.22,35.309 0,12.262 8.55,20.441 20.46,20.441 9.3,0 16.73,-7.429 16.73,-16.722 v -1.86 l -14.87,-14.871 c 6.32,-8.179 16.73,-13.008 27.9,-13.008 30.86,0 55.04,24.161 68.8,68.758 l 31.62,102.203 c -27.9,-55.75 -61.37,-89.203 -89.27,-89.203 -13.02,0 -22.32,5.582 -27.9,18.59 v 11.152 c 0,79.899 52.08,144.942 115.31,144.942 h 3.72 l 22.32,-11.152 22.31,11.152 h 10.04 v -5.582 l -9.3,-9.289"
       style="fill:#161412;fill-opacity:1;fill-rule:nonzero;stroke:none"
       transform="matrix(0.13333333,0,0,-0.13333333,0,147)"
       clip-path="url(#clipPath53)" />
    <path
       id="path54"
       d="m 2435.27,770.512 -13.02,13.008 c -42.78,0 -85.55,-70.61 -85.55,-143.079 l 7.44,-7.429 c 31.62,0 76.25,63.168 91.13,130.066 z m -13.02,-156.09 c -12.27,0 -20.46,7.437 -22.32,20.437 l 24.18,72.469 c -27.9,-61.316 -59.51,-92.906 -92.99,-92.906 -14.88,0 -24.18,7.437 -27.89,22.297 v 7.429 c 0,78.051 55.79,148.661 119.02,148.661 h 1.86 l 22.32,-11.149 13.01,13.012 h 13.03 l 3.71,-3.723 -42.77,-146.801 1.86,-7.429 7.44,-3.707 11.15,11.136 11.17,16.731 5.57,5.57 3.72,1.86 1.86,-1.86 c -14.88,-33.437 -35.33,-52.027 -53.93,-52.027"
       style="fill:#161412;fill-opacity:1;fill-rule:nonzero;stroke:none"
       transform="matrix(0.13333333,0,0,-0.13333333,0,147)"
       clip-path="url(#clipPath55)" />
    <path
       id="path56"
       d="m 2595.2,783.52 -3.72,-1.86 h -32.73 l -1.49,-2.969 -34.58,-132.679 5.57,-9.293 11.16,-3.707 11.16,11.136 11.16,16.731 5.58,5.57 3.72,1.86 1.85,-1.86 c -14.87,-35.301 -33.47,-52.027 -57.65,-52.027 -15.99,0 -27.15,11.148 -27.15,26.758 l 39.43,140.48 h -29.01 l -1.86,1.86 1.86,3.718 3.72,1.852 22.31,3.719 9.3,9.293 14.88,29.726 26.04,13.012 1.86,-3.711 -16.74,-50.18 37.2,1.86 1.85,-1.86 -3.72,-7.429"
       style="fill:#161412;fill-opacity:1;fill-rule:nonzero;stroke:none"
       transform="matrix(0.13333333,0,0,-0.13333333,0,147)"
       clip-path="url(#clipPath57)" />
    <path
       id="path58"
       d="m 2650.99,835.551 c -11.9,0 -20.45,8.551 -20.45,20.437 0,11.891 8.55,20.442 20.45,20.442 11.91,0 20.46,-8.551 20.46,-20.442 0,-11.886 -8.55,-20.437 -20.46,-20.437 z M 2604.5,614.422 c -13.76,0 -23.43,9.289 -23.43,24.156 l 40.17,144.942 -1.86,1.859 h -23.06 l -0.75,0.742 1.49,2.969 1.86,1.859 3.72,1.86 h 50.22 l 1.86,-1.86 -40.18,-146.801 2.98,-7.429 7.44,-3.707 11.15,11.136 11.16,16.731 5.59,5.57 3.71,1.86 1.86,-1.86 c -14.87,-33.437 -35.33,-52.027 -53.93,-52.027"
       style="fill:#161412;fill-opacity:1;fill-rule:nonzero;stroke:none"
       transform="matrix(0.13333333,0,0,-0.13333333,0,147)"
       clip-path="url(#clipPath59)" />
    <path
       id="path60"
       d="m 2810.92,714.762 c -31.61,-63.184 -68.8,-100.34 -100.42,-100.34 -9.3,0 -18.6,5.566 -24.18,14.867 v 18.582 c 0,50.168 22.32,100.34 57.66,135.649 h -11.16 l -33.48,-11.149 -7.44,-14.871 v -20.43 l -1.86,-1.859 h -1.86 l -9.3,18.578 v 18.582 c 0,11.149 7.44,18.578 18.6,18.578 h 52.08 l 7.43,3.723 h 5.58 l 1.87,-1.863 v -3.719 l -3.73,-3.711 c -29.76,-29.731 -40.91,-63.18 -40.91,-122.641 v -22.297 l 7.44,-7.429 c 44.63,22.289 78.11,81.75 78.11,137.5 v 14.867 l 27.89,9.293 7.44,-7.434 V 774.23 l -29.76,-59.468"
       style="fill:#161412;fill-opacity:1;fill-rule:nonzero;stroke:none"
       transform="matrix(0.13333333,0,0,-0.13333333,0,147)"
       clip-path="url(#clipPath61)" />
    <path
       id="path62"
       d="m 2931.8,788.352 c -27.89,0 -55.79,-40.141 -63.23,-90.313 l 5.58,1.859 c 44.63,14.864 74.39,40.883 74.39,70.614 0,11.148 -6.33,17.84 -16.74,17.84 z m -63.98,-97.743 -1.11,-3.718 v -9.289 c 0,-27.872 11.16,-44.59 29.75,-44.59 20.46,0 39.06,14.859 52.08,39.019 l 3.72,3.719 3.72,1.852 1.86,-1.852 v -1.871 c -18.6,-37.16 -44.64,-59.457 -72.53,-59.457 -33.48,0 -52.07,20.437 -52.07,55.75 0,65.039 48.35,126.359 100.42,126.359 24.18,0 40.91,-16.73 40.91,-40.883 -14.87,-29.738 -48.35,-50.179 -106.75,-65.039"
       style="fill:#161412;fill-opacity:1;fill-rule:nonzero;stroke:none"
       transform="matrix(0.13333333,0,0,-0.13333333,0,147)"
       clip-path="url(#clipPath63)" />
  </g>
</svg>
